<svg width="55" height="14" viewBox="0 0 55 14" fill="none" xmlns="http://www.w3.org/2000/svg">
<path d="M54.8709 1.13996C54.676 0.880165 54.4812 0.685318 53.507 0.620369C53.2472 0.620369 52.4678 0.55542 51.1039 0.55542C47.5317 0.55542 45.0637 1.65954 43.8297 3.80287C44.1544 1.65963 42.0761 0.55542 37.5297 0.55542C32.2039 0.55542 28.8266 2.69866 27.4627 7.05033C26.9431 8.67405 26.9431 9.97303 27.3328 11.0122H26.0338C25.0596 11.0771 23.7606 11.1421 22.9163 11.1421C20.9679 11.1421 19.7338 10.8173 19.2792 10.1679C18.8895 9.58332 18.8895 8.47922 19.4091 6.85549C20.2535 4.19261 22.2669 3.02347 25.5142 3.02347C27.2029 3.02347 28.8266 3.21832 28.8266 3.21832C29.0215 3.21832 29.1514 2.95852 29.1514 2.76367L29.0864 2.56883L28.9565 1.65955C28.8916 1.07501 28.4369 0.750279 27.6575 0.620381C26.9431 0.555432 26.3586 0.555432 25.5792 0.555432H25.5143C21.2926 0.555432 18.305 1.98426 16.6812 4.7122C17.2658 1.91947 15.3173 0.555432 10.8358 0.555432C8.30277 0.555432 6.48427 0.620381 5.44512 0.750279C4.60079 0.880176 4.08121 1.20492 3.88631 1.78945L3.49662 2.95852C3.43167 3.15337 3.56157 3.28327 3.82136 3.28327C4.01621 3.28327 4.79559 3.15337 6.09458 3.08842C7.84815 2.95852 9.08221 2.89357 9.9266 2.89357C12.3946 2.89357 13.4988 3.54306 13.1091 4.77712C13.0442 5.03692 12.8493 5.23176 12.5246 5.29671C10.1865 5.68641 8.3029 5.9462 6.939 6.14104C3.04205 6.66063 0.768837 7.82969 0.184401 9.77816C-0.659923 12.441 1.41842 13.74 6.41949 13.74C8.88747 13.74 11.0308 13.6101 12.7195 13.2854C13.6937 13.0905 14.2134 12.8957 14.4081 12.2462L15.3174 9.25858C15.2525 12.2462 17.2659 13.7401 21.5525 13.7401C23.371 13.7401 25.1247 13.6751 25.969 13.5452C26.8132 13.4153 27.2679 13.2205 27.4628 12.571L27.6577 11.6617C28.567 13.0906 30.5804 13.805 33.633 13.805C36.8804 13.805 38.7638 13.74 39.2835 13.5452C39.7381 13.4153 39.9979 13.1555 40.1278 12.8307C40.1278 12.7658 40.1278 12.7009 40.1928 12.6359L40.5825 11.4019C40.6474 11.207 40.5175 11.0771 40.2577 11.0771L38.1794 11.207C36.8155 11.272 35.7114 11.3369 34.9319 11.3369C33.4381 11.3369 32.464 11.207 31.8794 11.0122C31.035 10.6874 30.6454 10.1029 30.7103 9.12864L37.2701 8.28431C40.1929 7.89462 42.2062 6.98535 43.1805 5.55651L40.9073 13.1555C40.8423 13.2854 40.9073 13.4153 40.9722 13.4802C41.0372 13.5452 41.1671 13.6101 41.4269 13.6101H44.1547C44.6093 13.6101 44.8042 13.3503 44.8691 13.1555L47.2722 4.77717C47.5969 3.67305 48.5711 3.15344 50.3896 3.15344C52.0134 3.15344 53.1824 3.15344 53.9618 3.21839H54.0268C54.1567 3.21839 54.4165 3.15344 54.6113 2.8287L55.001 1.65963C55.001 1.46478 55.001 1.26993 54.8711 1.14004L54.8709 1.13996ZM11.0958 11.142C10.2515 11.2719 9.01753 11.3369 7.45872 11.3369C4.66599 11.3369 3.49686 10.7523 3.8216 9.64821C4.0814 8.86882 4.79582 8.34924 5.96484 8.21938L12.2648 7.37506L11.0958 11.142ZM40.1282 4.38741C39.8684 5.23174 38.6343 5.81624 36.4261 6.14099L31.1653 6.85542L31.2952 6.40078C31.7498 4.97196 32.3343 4.06264 33.1137 3.543C33.893 3.0234 35.192 2.76361 37.0106 2.76361C39.4137 2.82856 40.4528 3.34815 40.1281 4.38733L40.1282 4.38741Z" fill="#1E202D"/>
</svg>
