<svg width="30" height="36" viewBox="0 0 30 36" fill="none" xmlns="http://www.w3.org/2000/svg">
<path d="M25.0824 18.9257C25.0664 15.9913 26.3895 13.7765 29.0675 12.1454C27.5691 9.99453 25.3055 8.81117 22.3167 8.57931C19.4872 8.35547 16.3948 10.2344 15.2631 10.2344C14.0675 10.2344 11.3257 8.65932 9.17375 8.65932C4.72636 8.73123 0 12.2174 0 19.3095C0 21.4044 0.382572 23.5685 1.14772 25.802C2.16791 28.7363 5.85016 35.9324 9.69183 35.8125C11.7004 35.7645 13.119 34.3813 15.7333 34.3813C18.2678 34.3813 19.5829 35.8125 21.8225 35.8125C25.6961 35.7565 29.0277 29.2161 30 26.2737C24.8034 23.819 25.0824 19.0776 25.0824 18.9257ZM20.5712 5.79684C22.7471 3.20625 22.5478 0.847537 22.4841 0C20.5632 0.111939 18.3395 1.31129 17.0723 2.79048C15.6775 4.37362 14.8566 6.33255 15.0319 8.53934C17.1121 8.69928 19.0091 7.62787 20.5712 5.79684Z" fill="#1E202D"/>
</svg>
