<svg width="65" height="14" viewBox="0 0 65 14" fill="none" xmlns="http://www.w3.org/2000/svg">
<path d="M19.8986 0.134521C18.2723 0.235819 17.5667 1.01776 17.0373 1.57314C16.4699 2.16596 16.1546 3.41446 16.1546 3.41446V0.159971H9.81424C9.3352 0.159971 8.88111 0.361567 8.54079 0.841109C8.18799 1.30817 6.73839 3.70488 6.73839 3.70488H31.8112V0.134521H19.8986ZM51.4634 0.134521C49.8502 0.235819 49.1316 1.01776 48.6022 1.57314C48.0348 2.16596 47.7194 3.41446 47.7194 3.41446V3.70488H64.208V0.134521H51.4634ZM32.4285 0.147496V3.70488H35.9964V0.147496H32.4285ZM44.1271 0.147496V3.70488H47.6815V0.147496H44.1271ZM6.5867 3.91945L0.460449 13.5577H4.64558L10.5453 4.3481L6.5867 3.91945ZM32.4664 3.96985V9.15947C32.4609 9.05319 32.454 8.90249 32.454 8.90249C32.3656 8.37255 31.3572 6.02624 29.189 5.82414C27.8906 5.6979 16.3312 4.77724 16.3312 4.77724C16.5583 5.93792 17.0752 6.53073 17.428 6.85857C18.2349 7.62804 19.5079 7.85558 19.5079 7.85558C19.8102 7.88053 28.42 8.59959 28.42 8.59959C28.6975 8.61207 29.2144 8.68792 29.202 9.36905C29.202 9.45738 29.1261 10.0507 28.4704 10.0507H16.0034V4.75179L12.5368 4.49979C12.5243 4.49979 12.5243 13.5577 12.5243 13.5577H29.189C32.0882 12.9773 32.3911 10.3281 32.3911 10.3281C32.442 10.0387 32.4595 9.78373 32.4664 9.55768V10.2902C33.0338 13.3177 35.7693 13.5577 35.7693 13.5577C35.7693 13.5577 36.0468 13.5702 36.0972 13.5826H44.2279C44.2279 13.5826 47.707 13.3052 47.707 9.94939L47.6815 4.99181L44.1775 4.77724V8.90249C44.1775 8.90249 44.1645 10.0881 43.0178 10.0881H37.0173C37.0173 10.0881 35.9964 9.99979 35.9964 8.91496V4.22235L32.4664 3.96985ZM47.934 4.99181C48.2743 6.18991 48.7409 6.55618 49.0937 6.88402C49.9006 7.66596 51.0977 7.84261 51.0977 7.84261C51.4006 7.86806 60.0987 8.59959 60.0987 8.59959C60.3756 8.61207 60.943 8.63752 60.943 9.31866C60.943 9.52075 60.8422 9.73532 60.7159 9.8486C60.7159 9.8486 60.4135 10.0128 60.1236 10.0128H47.7449L47.707 13.5826H60.4639C63.666 13.3935 64.1196 10.3531 64.1196 10.3531C64.2329 9.55868 64.1451 8.90249 64.1451 8.90249C64.0568 8.18343 63.0358 6.01327 60.8547 5.79919C59.5692 5.67295 47.934 4.99181 47.934 4.99181Z" fill="#1E202D"/>
</svg>
