<svg width="40" height="40" viewBox="0 0 40 40" fill="none" xmlns="http://www.w3.org/2000/svg">
<rect x="9.58667" width="30.4132" height="30.4132" rx="15.2066" fill="#F1F5EB"/>
<g clip-path="url(#clip0_167_4093)">
<path d="M27.1444 26.9578C27.1718 26.6099 27.1899 26.2639 27.1899 25.9287V12.8335C27.1899 12.7452 27.1638 12.659 27.1149 12.5855C27.066 12.5121 26.9965 12.4548 26.9151 12.4208L14.6904 7.30716C14.6357 7.28426 14.577 7.27246 14.5177 7.27246C14.4584 7.27246 14.3997 7.28426 14.345 7.30716L2.12058 12.4208C2.03916 12.4548 1.96963 12.5121 1.92072 12.5855C1.87181 12.659 1.84572 12.7452 1.84572 12.8335V25.9287C1.8415 28.5388 2.61121 31.0915 4.05756 33.2642C5.50392 35.4369 7.56196 37.132 9.97155 38.1352L14.3455 39.9649C14.4002 39.9878 14.4589 39.9996 14.5182 39.9996C14.5775 39.9996 14.6362 39.9878 14.6909 39.9649L19.0651 38.1352C19.1326 38.1071 19.1983 38.0762 19.2651 38.0468C19.9785 38.7274 20.8299 39.2465 21.7617 39.569C22.6934 39.8914 23.6836 40.0096 24.6651 39.9155C25.6466 39.8215 26.5963 39.5173 27.4499 39.0238C28.3034 38.5302 29.0408 37.8588 29.6119 37.0551C30.183 36.2514 30.5746 35.3342 30.7599 34.3658C30.9452 33.3974 30.92 32.4005 30.686 31.4427C30.452 30.4849 30.0146 29.5886 29.4036 28.8148C28.7927 28.041 28.0223 27.4076 27.1449 26.9578H27.1444ZM14.5178 39.0672L10.3165 37.3099C8.06993 36.3744 6.15118 34.7938 4.80273 32.7681C3.45428 30.7423 2.73667 28.3622 2.74061 25.9287V13.1313L14.5178 8.20486L26.295 13.1313V25.9287C26.295 26.143 26.2879 26.3634 26.2756 26.5833C25.7431 26.3963 25.1895 26.2761 24.6275 26.2253C24.6306 26.1246 24.6331 26.0251 24.6331 25.9282V14.5355C24.6331 14.4473 24.607 14.361 24.5581 14.2875C24.5092 14.2141 24.4397 14.1567 24.3582 14.1226L14.6904 10.0788C14.6357 10.0558 14.577 10.0441 14.5177 10.0441C14.4584 10.0441 14.3997 10.0558 14.345 10.0788L4.67714 14.1226C4.59579 14.1568 4.52634 14.2142 4.47749 14.2876C4.42864 14.3611 4.40256 14.4473 4.40254 14.5355V25.9287C4.39913 28.0344 5.02005 30.0938 6.18683 31.8466C7.3536 33.5995 9.01385 34.9671 10.9577 35.7766L14.345 37.1933C14.3997 37.2162 14.4584 37.2281 14.5177 37.2281C14.577 37.2281 14.6357 37.2162 14.6904 37.1933L17.7463 35.9149C17.9799 36.4269 18.2753 36.9084 18.6261 37.3485L14.5178 39.0672ZM17.1288 33.0727C17.1285 33.7524 17.2293 34.4283 17.428 35.0783L14.5178 36.2956L11.3031 34.951C9.52217 34.2094 8.00105 32.9565 6.93207 31.3506C5.86308 29.7447 5.29423 27.8579 5.29743 25.9287V14.8334L14.5178 10.9764L23.7382 14.8334V25.93C23.7382 26.0192 23.7359 26.1113 23.7331 26.2046C21.959 26.2766 20.2813 27.0314 19.0506 28.3113C17.8199 29.5912 17.1313 31.2971 17.1288 33.0727ZM20.5215 37.9307V37.3815C20.5222 36.7544 20.7716 36.1533 21.2149 35.7099C21.6583 35.2665 22.2595 35.0171 22.8865 35.0164H25.1238C25.7508 35.0171 26.352 35.2665 26.7954 35.7099C27.2388 36.1533 27.4881 36.7544 27.4888 37.3815V37.9304C26.4742 38.661 25.2555 39.0541 24.0052 39.0541C22.7548 39.0541 21.5361 38.6613 20.5215 37.9307ZM28.3722 37.1542C28.3142 36.332 27.9471 35.5623 27.3447 34.9997C26.7423 34.4371 25.9493 34.1235 25.125 34.1218H22.8878C22.0636 34.1234 21.2705 34.4371 20.6681 34.9996C20.0657 35.5622 19.6986 36.332 19.6407 37.1542C18.8438 36.3027 18.3132 35.2369 18.1141 34.0879C17.915 32.9388 18.0562 31.7567 18.5202 30.6868C18.9842 29.6169 19.7509 28.706 20.7258 28.0662C21.7008 27.4263 22.8415 27.0854 24.0077 27.0854C25.1739 27.0854 26.3146 27.4263 27.2896 28.0662C28.2645 28.706 29.0312 29.6169 29.4952 30.6868C29.9592 31.7567 30.1004 32.9388 29.9013 34.0879C29.7023 35.2369 29.1716 36.3027 28.3748 37.1542H28.3722Z" fill="#FFA700"/>
<path d="M24.0048 28.3672C23.5026 28.3392 23.0036 28.4625 22.5723 28.7213C22.141 28.98 21.7972 29.3622 21.5855 29.8184C21.3738 30.2746 21.3039 30.7839 21.3848 31.2803C21.4657 31.7767 21.6937 32.2374 22.0392 32.6028C22.3848 32.9682 22.8321 33.2215 23.3233 33.3299C23.8144 33.4383 24.3268 33.3968 24.7941 33.2109C25.2614 33.0249 25.6621 32.703 25.9444 32.2867C26.2268 31.8705 26.3777 31.3791 26.3777 30.8762C26.3945 30.2291 26.1542 29.6018 25.7095 29.1315C25.2647 28.6613 24.6517 28.3864 24.0048 28.3672ZM24.0048 32.49C23.6795 32.5187 23.3532 32.4484 23.0685 32.2884C22.7839 32.1283 22.5543 31.8861 22.4097 31.5933C22.2652 31.3005 22.2125 30.9708 22.2585 30.6476C22.3046 30.3243 22.4472 30.0225 22.6677 29.7817C22.8883 29.5409 23.1764 29.3724 23.4944 29.2982C23.8124 29.224 24.1454 29.2476 24.4497 29.3659C24.754 29.4842 25.0155 29.6917 25.1999 29.9612C25.3843 30.2307 25.4829 30.5497 25.4828 30.8762C25.4999 31.286 25.3539 31.686 25.077 31.9886C24.8 32.2912 24.4145 32.4718 24.0048 32.4911V32.49Z" fill="#FFA700"/>
<path d="M14.5179 14.5054C13.3972 14.5054 12.3016 14.8377 11.3698 15.4603C10.4379 16.083 9.71165 16.9679 9.28277 18.0033C8.8539 19.0387 8.74168 20.1781 8.96032 21.2773C9.17896 22.3764 9.71864 23.3861 10.5111 24.1786C11.3036 24.971 12.3132 25.5107 13.4124 25.7293C14.5116 25.948 15.6509 25.8358 16.6863 25.4069C17.7217 24.978 18.6067 24.2517 19.2293 23.3199C19.852 22.388 20.1843 21.2925 20.1843 20.1718C20.1826 18.6695 19.5851 17.2292 18.5228 16.1669C17.4605 15.1046 16.0202 14.5071 14.5179 14.5054ZM18.8284 22.204H17.3912C17.4956 21.6814 17.5582 21.1513 17.5784 20.6187H19.2659C19.2138 21.1686 19.0657 21.7052 18.8284 22.204ZM10.2073 18.1386H11.6443C11.5401 18.6612 11.4775 19.1913 11.4571 19.7238H9.7696C9.82176 19.1739 9.96991 18.6374 10.2073 18.1386ZM14.9653 17.2437V15.523C15.4317 15.7664 15.8832 16.3731 16.2084 17.2442L14.9653 17.2437ZM16.4738 18.1386C16.5904 18.6598 16.6601 19.1903 16.6822 19.7238H14.9653V18.1386H16.4738ZM14.0704 15.5225V17.2437H12.8273C13.1525 16.3744 13.6041 15.7664 14.0704 15.523V15.5225ZM14.0704 18.1386V19.7238H12.3535C12.3755 19.1903 12.4452 18.6597 12.5619 18.1386H14.0704ZM9.76908 20.6187H11.4566C11.477 21.1512 11.5396 21.6813 11.6437 22.204H10.2068C9.9694 21.7052 9.82125 21.1686 9.76908 20.6187ZM12.3535 20.6187H14.0704V22.204H12.5619C12.4452 21.6828 12.3755 21.1523 12.3535 20.6187ZM14.0704 23.0988V24.8201C13.6041 24.5769 13.1525 23.9699 12.827 23.0988H14.0704ZM14.9653 24.8201V23.0988H16.2084C15.8832 23.9702 15.4317 24.5769 14.9653 24.8201ZM14.9653 22.204V20.6187H16.6822C16.6601 21.1523 16.5904 21.6828 16.4738 22.204H14.9653ZM17.5784 19.7238C17.5581 19.1913 17.4955 18.6612 17.3912 18.1386H18.8284C19.066 18.6373 19.2143 19.1739 19.2666 19.7238H17.5784ZM18.2774 17.2437H17.1598C17.0069 16.7529 16.7921 16.2835 16.5206 15.8469C17.2086 16.1668 17.8107 16.6456 18.2774 17.2437ZM12.5138 15.8474C12.2429 16.2839 12.0285 16.7531 11.8759 17.2437H10.7583C11.2248 16.646 11.8264 16.1674 12.5138 15.8474ZM10.7581 23.0988H11.8759C12.0285 23.5896 12.2428 24.059 12.5138 24.4956C11.8263 24.1755 11.2245 23.6968 10.7581 23.0988ZM16.5216 24.4959C16.7931 24.0592 17.0079 23.5897 17.1608 23.0988H18.2787C17.8118 23.6971 17.2097 24.1757 16.5216 24.4959Z" fill="#FFA700"/>
</g>
<defs>
<clipPath id="clip0_167_4093">
<rect width="32.7273" height="32.7273" fill="white" transform="translate(0 7.27246)"/>
</clipPath>
</defs>
</svg>
