<svg width="89" height="88" viewBox="0 0 89 88" fill="none" xmlns="http://www.w3.org/2000/svg">
<path fill-rule="evenodd" clip-rule="evenodd" d="M41.9431 34.5403C41.6681 34.3602 41.3934 34.1798 41.1197 33.998C39.9658 34.7394 38.8155 35.4839 37.6652 36.2286C35.5012 37.6294 33.337 39.0303 31.1502 40.4083C30.3612 38.0172 28.6603 36.0971 26.2616 35.3497C24.5692 34.8225 22.4703 34.8912 20.2999 34.9625C18.9911 35.0054 17.6564 35.0491 16.3691 34.9636V51.0659C17.6869 51.0049 18.9962 51.042 20.2649 51.078C21.6313 51.1171 22.9507 51.1545 24.183 51.0659C27.9934 50.792 30.2963 48.4727 31.2657 45.3896C32.8983 46.4577 34.5035 47.5536 36.1087 48.6498C37.7942 49.8004 39.4794 50.9513 41.1967 52.07C42.3003 51.3637 43.411 50.6402 44.5231 49.9159C46.6555 48.5271 48.7933 47.1348 50.8968 45.8527V51.0659H61.7904V45.93C61.1461 45.9204 60.4866 45.9256 59.8272 45.9306C58.7536 45.9391 57.68 45.9473 56.6707 45.8918V34.9636H50.8968V40.4471C50.1824 40.9041 49.4698 41.3628 48.757 41.8215C46.8518 43.0486 44.9464 44.2753 43.006 45.4669C42.8539 45.3674 42.6955 45.2744 42.5371 45.1815C42.2582 45.0181 41.9797 44.8545 41.7357 44.6559C42.8275 43.9481 43.9077 43.2287 44.9879 42.5096C46.4605 41.5292 47.9329 40.5488 49.4344 39.5973C48.3591 38.7839 47.2121 38.0425 46.0469 37.3189C43.6497 38.8578 41.2435 40.3871 38.8372 41.9164C38.6357 42.0443 38.4344 42.1724 38.2328 42.3003C38.0364 42.1496 37.8266 42.0124 37.6168 41.8754C37.4072 41.7385 37.1974 41.6012 37.0013 41.4508C38.0763 40.7636 39.1452 40.07 40.2142 39.3762C41.7162 38.4016 43.2185 37.4267 44.7382 36.4695C43.845 35.7877 42.894 35.164 41.9431 34.5403ZM21.8734 45.9303V40.138C21.87 40.0832 21.8672 40.0285 21.9117 40.0222C23.5787 39.9149 24.78 40.0876 25.4915 40.9102C26.5577 42.143 26.3144 44.4566 25.1066 45.3896C24.3745 45.9556 23.4518 45.946 22.2688 45.9336C22.1401 45.9322 22.0083 45.9308 21.8734 45.9303Z" fill="#1E202D"/>
<path d="M69.0645 34.9639H63.2909C63.2461 34.9702 63.2491 35.0244 63.2519 35.0791V51.0665H74.1457V45.9306H69.0645V34.9639Z" fill="#1E202D"/>
<path fill-rule="evenodd" clip-rule="evenodd" d="M45.8539 5.5H43.4674C31.9359 6.13687 23.5736 10.5905 17.4468 16.7373C11.3481 22.8556 6.78737 31.1141 6.20696 42.7644C6.21345 42.8092 6.19865 42.8332 6.16846 42.8417V45.1586C6.77458 56.8535 11.3105 65.0268 17.4466 71.2242C23.5827 77.4216 31.8608 81.8419 43.4674 82.4997H45.8154C57.653 81.9156 65.4952 77.3237 71.8747 71.2629C77.9475 64.8824 82.5636 57.0402 83.153 45.1586V42.8417C82.5469 31.1468 78.011 22.9732 71.8747 16.7759C65.7386 10.5787 57.4619 6.1567 45.8539 5.5ZM29.7257 13.339C31.5847 12.4167 33.6359 11.6365 35.9228 11.0221C38.2273 10.403 40.7524 10.0687 43.4295 9.94081C48.8745 9.68072 53.9587 10.893 57.8642 12.5281C61.8894 14.2133 65.3049 16.5448 68.1415 19.2858C73.8745 24.8253 78.2184 32.0895 78.7268 42.8029C78.9955 48.4583 77.7528 53.127 76.1094 57.1681C72.8597 65.1571 66.997 70.947 59.5574 74.6996C55.7616 76.6142 51.1798 77.8066 45.8927 78.0593C40.3803 78.3225 35.4856 77.1474 31.5349 75.4721C23.5464 72.0841 17.7739 66.5098 13.9823 58.9443C12.0624 55.1127 10.847 50.6179 10.5952 45.2743C10.1959 36.7983 12.9533 30.3347 16.1379 25.3099C19.4008 20.1621 24.0672 16.146 29.7257 13.339Z" fill="#1E202D"/>
</svg>
