<svg width="48" height="42" viewBox="0 0 48 42" fill="none" xmlns="http://www.w3.org/2000/svg">
<rect x="16.6575" width="31" height="31" rx="15.5" fill="#F1F5EB"/>
<path d="M14.347 32.0885C14.2299 32.0887 14.1135 32.0702 14.0022 32.0336C13.1386 31.7534 12.9316 30.6107 12.7314 29.5059C12.6165 28.872 12.4594 28.0037 12.2007 27.8153C11.9352 27.6219 11.0526 27.7407 10.4067 27.8275C9.30201 27.9764 8.15997 28.13 7.63183 27.4045C7.1087 26.6869 7.60348 25.6532 8.08211 24.655C8.36556 24.0638 8.75342 23.2558 8.64937 22.9328C8.55428 22.6401 7.78826 22.2285 7.22854 21.9282C6.23074 21.3922 5.19849 20.8375 5.19849 19.9147C5.19849 18.9918 6.23074 18.4375 7.22854 17.9015C7.78826 17.6008 8.55428 17.1893 8.64937 16.8969C8.75342 16.5739 8.36556 15.7659 8.08211 15.1746C7.60348 14.1765 7.1087 13.1439 7.63183 12.4252C8.15997 11.6997 9.30201 11.8533 10.4067 12.0022C11.0526 12.0887 11.9341 12.2074 12.2007 12.0144C12.4594 11.826 12.6165 10.9577 12.7314 10.3237C12.9316 9.21867 13.1386 8.07627 14.0022 7.79569C14.8353 7.52516 15.6552 8.30733 16.4481 9.06331C16.9292 9.5222 17.5884 10.1508 17.9396 10.1508C18.2909 10.1508 18.9496 9.5222 19.4311 9.06331C20.2241 8.30661 21.0439 7.52588 21.877 7.79497C22.7406 8.07555 22.9477 9.21795 23.1479 10.323C23.2627 10.957 23.4198 11.8253 23.6785 12.0137C23.944 12.2071 24.8267 12.0879 25.4725 12.0015C26.5772 11.8526 27.7193 11.699 28.2474 12.4245C28.7705 13.1421 28.2757 14.1758 27.7971 15.1739C27.5137 15.7652 27.1258 16.5732 27.2299 16.8961C27.3249 17.1889 28.091 17.6004 28.6507 17.9008C29.6485 18.4368 30.6807 18.9911 30.6807 19.9139C30.6807 20.8368 29.6485 21.3915 28.6507 21.9275C28.091 22.2282 27.3231 22.6397 27.2299 22.9321C27.1258 23.2532 27.5137 24.063 27.7971 24.6543C28.2747 25.6532 28.7694 26.6855 28.2463 27.4031C27.7182 28.1285 26.5761 27.975 25.4714 27.8261C24.8256 27.7392 23.944 27.6205 23.6774 27.8139C23.4188 28.0022 23.2616 28.8705 23.1468 29.5045C22.9466 30.6092 22.7396 31.752 21.8759 32.0322C21.7647 32.0687 21.6483 32.0873 21.5311 32.0871C20.8164 32.0871 20.1132 31.4165 19.43 30.7646C18.9489 30.3057 18.2898 29.6774 17.9385 29.6774C17.5873 29.6774 16.9285 30.3057 16.447 30.7646C15.765 31.4176 15.0614 32.0885 14.347 32.0885ZM11.6295 26.7066C12.083 26.7066 12.4842 26.7802 12.7916 27.0041C13.3761 27.4292 13.5451 28.3513 13.7202 29.328C13.8031 29.7872 13.8892 30.2608 14.014 30.6135C14.1482 30.9899 14.2674 31.0645 14.3126 31.08C14.3341 31.0871 14.459 31.1108 14.7869 30.8851C15.0836 30.681 15.4248 30.3556 15.7556 30.0409C16.4919 29.3391 17.1869 28.6775 17.9403 28.6775C18.6938 28.6775 19.3891 29.3405 20.125 30.0409C20.4551 30.3556 20.7963 30.681 21.0938 30.8851C21.4213 31.1108 21.5462 31.0871 21.5677 31.08C21.6129 31.0653 21.7324 30.9906 21.8663 30.6135C21.9911 30.2623 22.0772 29.7883 22.1601 29.328C22.337 28.3513 22.5042 27.4292 23.0887 27.0041C23.68 26.5735 24.6157 26.6995 25.6067 26.8329C26.0659 26.895 26.5413 26.9585 26.9102 26.9488C27.3145 26.9377 27.4125 26.843 27.4351 26.8143C27.4577 26.7856 27.5119 26.6672 27.3992 26.2858C27.2959 25.9352 27.0899 25.5054 26.8908 25.0903C26.4563 24.1832 26.0458 23.3268 26.274 22.6236C26.4936 21.9472 27.3102 21.5084 28.1756 21.0449C28.5904 20.8221 29.0188 20.5917 29.318 20.361C29.5462 20.1848 29.6768 20.023 29.6768 19.9161C29.6768 19.8092 29.5459 19.6474 29.318 19.4716C29.0188 19.2409 28.5904 19.0105 28.1756 18.7877C27.3113 18.3234 26.4947 17.8846 26.274 17.209C26.0458 16.5058 26.4563 15.6493 26.8908 14.7427C27.0899 14.3272 27.2959 13.8977 27.3992 13.5472C27.5115 13.1658 27.4548 13.0448 27.4351 13.0187C27.4154 12.9925 27.3145 12.8952 26.9102 12.8841C26.5413 12.8741 26.0659 12.9379 25.6067 12.9996C24.6157 13.1331 23.68 13.259 23.0887 12.8288C22.5042 12.4037 22.3352 11.4812 22.1601 10.5049C22.0772 10.0457 21.9911 9.57208 21.8663 9.21938C21.7321 8.84265 21.6129 8.76802 21.5677 8.75295C21.5462 8.74613 21.4213 8.72245 21.0934 8.94778C20.7967 9.15193 20.4555 9.47736 20.1247 9.79238C19.3884 10.4942 18.6934 11.1558 17.94 11.1558C17.1865 11.1558 16.4915 10.4927 15.7553 9.79238C15.4252 9.47736 15.084 9.15193 14.7865 8.94778C14.4586 8.72245 14.3337 8.74613 14.3122 8.75295C14.267 8.76766 14.1475 8.84229 14.0137 9.21938C13.8888 9.57064 13.8027 10.0446 13.7198 10.5049C13.543 11.4812 13.3758 12.4037 12.7913 12.8288C12.2 13.2594 11.2643 13.1331 10.2733 12.9996C9.81401 12.9379 9.3404 12.8737 8.96977 12.8841C8.56541 12.8952 8.46746 12.9917 8.44485 13.0187C8.42225 13.0456 8.36807 13.1658 8.48073 13.5472C8.58406 13.8977 8.79001 14.3272 8.98914 14.7427C9.42364 15.6493 9.8341 16.5061 9.60591 17.209C9.38633 17.8857 8.56971 18.3245 7.7043 18.7877C7.28954 19.0105 6.86114 19.2409 6.5619 19.4716C6.33371 19.6474 6.20311 19.8095 6.20311 19.9161C6.20311 20.0227 6.33371 20.1848 6.5619 20.361C6.86114 20.5917 7.28954 20.8221 7.7043 21.0449C8.56864 21.5091 9.38525 21.948 9.60591 22.6236C9.8341 23.3268 9.42364 24.1832 8.98914 25.0903C8.79001 25.5054 8.58406 25.9352 8.48073 26.2858C8.36843 26.6672 8.42512 26.7881 8.44485 26.8143C8.46459 26.8405 8.56541 26.9377 8.96977 26.9488C9.33897 26.9585 9.81401 26.895 10.2733 26.8329C10.749 26.768 11.2115 26.7056 11.6295 26.7056V26.7066Z" fill="#FFA700"/>
<path d="M13.5955 39.2434C13.5157 39.2433 13.4372 39.2243 13.3662 39.1879C13.2953 39.1515 13.234 39.0986 13.1875 39.0338L11.5317 36.7236L8.71877 37.1373C8.63072 37.1499 8.54089 37.139 8.45846 37.1055C8.37603 37.0721 8.30396 37.0173 8.24962 36.9469C8.19529 36.8765 8.16063 36.7929 8.14919 36.7046C8.13775 36.6164 8.14995 36.5268 8.18453 36.4448L12.0857 27.2543C12.1107 27.1925 12.1478 27.1363 12.1947 27.0889C12.2417 27.0416 12.2976 27.0041 12.3592 26.9786C12.4208 26.9531 12.4869 26.9401 12.5536 26.9404C12.6203 26.9407 12.6862 26.9543 12.7476 26.9804C12.809 27.0064 12.8646 27.0444 12.9111 27.0922C12.9576 27.14 12.9942 27.1965 13.0186 27.2585C13.0431 27.3206 13.0549 27.3868 13.0535 27.4535C13.0521 27.5202 13.0374 27.5859 13.0103 27.6468L9.45896 36.0142L11.6885 35.6863C11.7798 35.6729 11.873 35.6849 11.958 35.7209C12.0429 35.757 12.1163 35.8158 12.17 35.8908L13.4828 37.7225L17.1691 29.0396C17.1941 28.9778 17.2312 28.9216 17.2781 28.8743C17.3251 28.827 17.381 28.7895 17.4426 28.764C17.5042 28.7385 17.5703 28.7255 17.637 28.7258C17.7037 28.7261 17.7696 28.7397 17.831 28.7657C17.8924 28.7918 17.9479 28.8298 17.9945 28.8776C18.041 28.9253 18.0776 28.9819 18.102 29.0439C18.1265 29.1059 18.1383 29.1722 18.1369 29.2389C18.1355 29.3055 18.1208 29.3712 18.0937 29.4322L14.058 38.9402C14.0231 39.0224 13.9671 39.0937 13.8955 39.147C13.8239 39.2003 13.7394 39.2336 13.6507 39.2434H13.5955Z" fill="#FFA700"/>
<path d="M22.2835 39.2435C22.2652 39.2435 22.2476 39.2435 22.2283 39.2407C22.1396 39.2309 22.0551 39.1976 21.9835 39.1443C21.912 39.091 21.8559 39.0196 21.821 38.9375L17.7857 29.4295C17.7586 29.3685 17.7439 29.3028 17.7425 29.2362C17.7411 29.1695 17.7529 29.1032 17.7774 29.0412C17.8018 28.9791 17.8384 28.9226 17.8849 28.8748C17.9314 28.8271 17.987 28.7891 18.0484 28.763C18.1098 28.737 18.1757 28.7234 18.2424 28.7231C18.3091 28.7228 18.3751 28.7358 18.4367 28.7613C18.4984 28.7867 18.5543 28.8243 18.6012 28.8716C18.6482 28.9189 18.6853 28.9751 18.7103 29.0369L22.3965 37.7197L23.7097 35.8877C23.7635 35.8128 23.8368 35.7542 23.9217 35.7182C24.0065 35.6821 24.0997 35.6702 24.1909 35.6836L26.4208 36.0144L22.8687 27.648C22.8416 27.5871 22.8269 27.5214 22.8255 27.4547C22.8241 27.3881 22.8359 27.3218 22.8604 27.2598C22.8848 27.1977 22.9214 27.1412 22.9679 27.0934C23.0145 27.0457 23.07 27.0077 23.1314 26.9816C23.1928 26.9556 23.2587 26.942 23.3254 26.9417C23.3921 26.9414 23.4582 26.9543 23.5198 26.9798C23.5814 27.0053 23.6373 27.0428 23.6843 27.0902C23.7312 27.1375 23.7683 27.1937 23.7933 27.2555L27.6949 36.4449C27.7294 36.5269 27.7416 36.6166 27.7302 36.7048C27.7188 36.793 27.6841 36.8766 27.6298 36.947C27.5754 37.0175 27.5033 37.0722 27.4209 37.1057C27.3385 37.1391 27.2487 37.1501 27.1606 37.1374L24.3477 36.7237L22.6918 39.034C22.6453 39.0989 22.584 39.1517 22.513 39.1881C22.442 39.2246 22.3633 39.2436 22.2835 39.2435ZM17.9396 26.4561C14.3327 26.4561 11.3984 23.5216 11.3984 19.9146C11.3984 16.3077 14.3327 13.3745 17.9396 13.3745C21.5466 13.3745 24.4808 16.3087 24.4808 19.9157C24.4808 23.5226 21.5466 26.4561 17.9396 26.4561ZM17.9396 14.3791C14.8866 14.3791 12.4031 16.8627 12.4031 19.9157C12.4031 22.9687 14.8866 25.4515 17.9396 25.4515C20.9926 25.4515 23.4762 22.9676 23.4762 19.9146C23.4762 16.8616 20.9926 14.3791 17.9396 14.3791Z" fill="#FFA700"/>
<path d="M17.0069 22.0574C16.9409 22.0576 16.8755 22.0447 16.8145 22.0194C16.7536 21.9942 16.6982 21.9571 16.6517 21.9103L15.2409 20.4999C15.1467 20.4057 15.0938 20.2779 15.0938 20.1447C15.0938 20.0115 15.1467 19.8837 15.2409 19.7895C15.3351 19.6953 15.4629 19.6424 15.5961 19.6424C15.7293 19.6424 15.8571 19.6953 15.9513 19.7895L17.0069 20.8433L19.9296 17.9209C20.0244 17.8298 20.1511 17.7795 20.2826 17.7808C20.4141 17.7821 20.5398 17.8349 20.6328 17.9278C20.7258 18.0207 20.7786 18.1464 20.78 18.2779C20.7813 18.4094 20.7311 18.5361 20.64 18.631L17.3621 21.9089C17.3155 21.9558 17.2602 21.9931 17.1993 22.0186C17.1383 22.044 17.0729 22.0573 17.0069 22.0574Z" fill="#FFA700"/>
</svg>
