<svg width="36" height="36" viewBox="0 0 36 36" fill="none" xmlns="http://www.w3.org/2000/svg">
<path d="M18.0002 35.9879C17.8223 35.9879 17.6421 35.9855 17.4667 35.9807L21.1412 25.8777H26.1999C27.0891 25.8777 28.0648 25.1927 28.3676 24.3588L32.3545 13.405C33.0082 11.6122 31.982 10.1439 30.0715 10.1439H23.0542L17.1639 26.327H17.1615L13.8234 35.5001C5.90487 33.616 0.012207 26.4953 0.012207 17.9999C0.012207 9.74737 5.56842 2.79487 13.1434 0.675248L9.69952 10.1439H9.69714L3.97029 25.8777H7.78418L12.653 12.5086H15.5201L10.6488 25.8777H14.4603L18.9975 13.405C19.6512 11.6122 18.6226 10.1439 16.7169 10.1439H13.5134L17.1927 0.0311885C17.4603 0.0183715 17.7295 0.0119629 18.0002 0.0119629C27.935 0.0119629 35.9882 8.06509 35.9882 17.9999C35.9882 27.9348 27.935 35.9879 18.0002 35.9879Z" fill="#1E202D"/>
<path d="M24.8735 23.5033H22.0088L26.0198 12.499H28.8844L24.8735 23.5033Z" fill="#1E202D"/>
</svg>
