<svg width="49" height="51" viewBox="0 0 49 51" fill="none" xmlns="http://www.w3.org/2000/svg">
<rect x="17.5171" width="31" height="31" rx="15.5" fill="#F1F5EB"/>
<path d="M40.3317 13.0024H2.05295C1.85974 13.0024 1.67445 13.0792 1.53783 13.2158C1.40121 13.3524 1.32446 13.5377 1.32446 13.7309V32.1418C1.32446 32.335 1.40121 32.5203 1.53783 32.6569C1.67445 32.7935 1.85974 32.8703 2.05295 32.8703H21.2254C21.2254 33.0888 21.2254 33.3074 21.2254 33.5326C21.2301 33.9258 21.2678 34.3179 21.338 34.7048C20.459 35.0549 19.6652 35.5894 19.0102 36.2722C18.3551 36.9549 17.8539 37.7701 17.5404 38.6629C17.2269 39.5556 17.1083 40.5052 17.1927 41.4476C17.2771 42.39 17.5624 43.3034 18.0295 44.1263C18.4965 44.9492 19.1345 45.6624 19.9004 46.218C20.6664 46.7736 21.5424 47.1586 22.4697 47.347C23.3969 47.5355 24.3538 47.5231 25.2758 47.3107C26.1978 47.0983 27.0637 46.6907 27.8149 46.1155C28.959 46.9796 30.3548 47.4449 31.7885 47.4401C33.3184 47.4373 34.8001 46.905 35.9819 45.9335C37.1638 44.9621 37.9728 43.6114 38.2717 42.1111C38.5705 40.6107 38.3407 39.0531 37.6212 37.703C36.9017 36.3528 35.737 35.2934 34.325 34.7048C34.3952 34.3179 34.4329 33.9258 34.4376 33.5326C34.4376 33.3074 34.4376 33.0888 34.4376 32.8703H40.3317C40.5249 32.8703 40.7102 32.7935 40.8468 32.6569C40.9834 32.5203 41.0602 32.335 41.0602 32.1418V13.7309C41.0602 13.5377 40.9834 13.3524 40.8468 13.2158C40.7102 13.0792 40.5249 13.0024 40.3317 13.0024ZM18.5433 40.8174C18.5442 39.854 18.8078 38.909 19.3057 38.0843C19.8036 37.2595 20.517 36.5861 21.3692 36.1365C22.2213 35.6869 23.1799 35.4783 24.1417 35.5329C25.1036 35.5875 26.0324 35.9034 26.8282 36.4465C26.5348 36.7726 26.2752 37.1277 26.0533 37.5061C25.4546 37.109 24.7595 36.8816 24.0418 36.8482C23.3242 36.8147 22.6109 36.9765 21.9778 37.3162C21.3448 37.6559 20.8157 38.1609 20.4469 38.7775C20.0781 39.394 19.8833 40.099 19.8833 40.8174C19.8833 41.5359 20.0781 42.2409 20.4469 42.8574C20.8157 43.4739 21.3448 43.9789 21.9778 44.3187C22.6109 44.6584 23.3242 44.8201 24.0418 44.7867C24.7595 44.7533 25.4546 44.5259 26.0533 44.1287C26.2744 44.5118 26.534 44.8713 26.8282 45.2016C26.0315 45.7454 25.1015 46.0613 24.1384 46.1154C23.1754 46.1695 22.2159 45.9597 21.3633 45.5085C20.5108 45.0574 19.7975 44.382 19.3006 43.5554C18.8036 42.7287 18.5418 41.782 18.5433 40.8174ZM25.1659 33.5326C25.1659 32.83 25.445 32.1562 25.9418 31.6594C26.4386 31.1626 27.1124 30.8835 27.8149 30.8835C28.5175 30.8835 29.1913 31.1626 29.6881 31.6594C30.1849 32.1562 30.464 32.83 30.464 33.5326C30.4592 33.8166 30.41 34.0981 30.3183 34.367C29.4123 34.5713 28.5594 34.9639 27.8149 35.5193C27.0711 34.9616 26.2181 34.5667 25.3116 34.3604C25.2176 34.0944 25.1683 33.8147 25.1659 33.5326ZM25.497 42.8771C25.0299 43.2591 24.4448 43.4674 23.8414 43.4665C23.1388 43.4665 22.465 43.1874 21.9682 42.6906C21.4714 42.1938 21.1923 41.52 21.1923 40.8174C21.1923 40.1149 21.4714 39.4411 21.9682 38.9443C22.465 38.4475 23.1388 38.1684 23.8414 38.1684C24.4448 38.1675 25.0299 38.3758 25.497 38.7578C25.0554 40.0954 25.0554 41.5395 25.497 42.8771ZM37.0866 40.8174C37.0866 41.8653 36.7759 42.8896 36.1937 43.7609C35.6115 44.6322 34.7841 45.3112 33.816 45.7122C32.8479 46.1132 31.7826 46.2182 30.7549 46.0137C29.7272 45.8093 28.7831 45.3047 28.0422 44.5638C27.3012 43.8228 26.7966 42.8788 26.5922 41.851C26.3878 40.8233 26.4927 39.758 26.8937 38.7899C27.2947 37.8218 27.9738 36.9944 28.845 36.4122C29.7163 35.8301 30.7406 35.5193 31.7885 35.5193C33.1936 35.5193 34.5412 36.0775 35.5348 37.0711C36.5284 38.0647 37.0866 39.4123 37.0866 40.8174ZM31.7885 34.1948H31.7289C31.7655 33.9759 31.7854 33.7545 31.7885 33.5326C31.7885 32.4787 31.3699 31.468 30.6247 30.7228C29.8795 29.9776 28.8688 29.559 27.8149 29.559C26.7611 29.559 25.7504 29.9776 25.0052 30.7228C24.26 31.468 23.8414 32.4787 23.8414 33.5326C23.8445 33.7545 23.8644 33.9759 23.901 34.1948H23.8414C23.4189 34.196 22.9974 34.2381 22.5831 34.3206C22.4623 33.5638 22.5071 32.7898 22.7145 32.052C22.9218 31.3142 23.2868 30.6302 23.7842 30.0471C24.2816 29.4641 24.8995 28.9959 25.5954 28.6748C26.2913 28.3537 27.0485 28.1875 27.8149 28.1875C28.5813 28.1875 29.3386 28.3537 30.0345 28.6748C30.7304 28.9959 31.3483 29.4641 31.8457 30.0471C32.3431 30.6302 32.708 31.3142 32.9154 32.052C33.1228 32.7898 33.1676 33.5638 33.0468 34.3206C32.6324 34.2381 32.211 34.196 31.7885 34.1948ZM27.8149 26.9099C26.9354 26.9109 26.0648 27.0872 25.2541 27.4283C24.4434 27.7694 23.7087 28.2686 23.093 28.8967H7.86099C7.73262 28.263 7.42151 27.6807 6.96606 27.2217C6.51062 26.7628 5.93075 26.4472 5.29803 26.3139V19.5588C5.9344 19.4291 6.51854 19.115 6.97778 18.6558C7.43702 18.1965 7.75107 17.6124 7.88086 16.976H34.5038C34.6336 17.6124 34.9476 18.1965 35.4069 18.6558C35.8661 19.115 36.4502 19.4291 37.0866 19.5588V26.3139C36.4502 26.4437 35.8661 26.7577 35.4069 27.217C34.9476 27.6762 34.6336 28.2604 34.5038 28.8967H32.517C31.9036 28.271 31.1722 27.7731 30.3651 27.4321C29.5579 27.0911 28.6912 26.9136 27.8149 26.9099ZM39.7356 31.5458H34.1329C33.9843 31.0845 33.7867 30.6404 33.5435 30.2212H35.7621V29.559C35.7621 29.0321 35.9714 28.5267 36.344 28.1541C36.7166 27.7815 37.2219 27.5722 37.7489 27.5722H38.4111V18.3005H37.7489C37.2219 18.3005 36.7166 18.0912 36.344 17.7186C35.9714 17.346 35.7621 16.8407 35.7621 16.3138V15.6515H6.62256V16.3138C6.62256 16.8407 6.41324 17.346 6.04064 17.7186C5.66805 18.0912 5.1627 18.3005 4.63577 18.3005H3.97351V27.5722H4.63577C5.1627 27.5722 5.66805 27.7815 6.04064 28.1541C6.41324 28.5267 6.62256 29.0321 6.62256 29.559V30.2212H22.0864C21.8431 30.6404 21.6455 31.0845 21.497 31.5458H2.64899V14.327H39.7356V31.5458Z" fill="#FFA700"/>
<path d="M21.1923 20.2876C21.9075 20.2876 22.5168 20.7445 22.5168 21.281H23.8413C23.812 20.7382 23.5996 20.2214 23.2388 19.8148C22.878 19.4083 22.39 19.1361 21.8546 19.0425V18.3008H20.53V19.0425C19.9946 19.1361 19.5066 19.4083 19.1458 19.8148C18.785 20.2214 18.5726 20.7382 18.5432 21.281C18.5908 21.9382 18.8957 22.5502 19.3916 22.9841C19.8875 23.4181 20.5345 23.6389 21.1923 23.5989C21.9075 23.5989 22.5168 24.0558 22.5168 24.5923C22.5168 25.1287 21.9075 25.5857 21.1923 25.5857C20.477 25.5857 19.8678 25.1287 19.8678 24.5923H18.5432C18.5726 25.135 18.785 25.6519 19.1458 26.0584C19.5066 26.4649 19.9946 26.7372 20.53 26.8307V27.5724H21.8546V26.8307C22.39 26.7372 22.878 26.4649 23.2388 26.0584C23.5996 25.6519 23.812 25.135 23.8413 24.5923C23.7937 23.935 23.4889 23.323 22.993 22.8891C22.4971 22.4552 21.85 22.2343 21.1923 22.2744C20.477 22.2744 19.8678 21.8174 19.8678 21.281C19.8678 20.7445 20.477 20.2876 21.1923 20.2876ZM11.9206 20.9498C11.5277 20.9498 11.1436 21.0664 10.8168 21.2847C10.4901 21.503 10.2354 21.8133 10.0851 22.1763C9.9347 22.5393 9.89535 22.9388 9.97201 23.3242C10.0487 23.7096 10.2379 24.0636 10.5158 24.3415C10.7936 24.6193 11.1476 24.8086 11.533 24.8852C11.9184 24.9619 12.3179 24.9225 12.6809 24.7722C13.044 24.6218 13.3543 24.3671 13.5726 24.0404C13.7909 23.7137 13.9074 23.3296 13.9074 22.9366C13.9074 22.4097 13.6981 21.9043 13.3255 21.5317C12.9529 21.1591 12.4476 20.9498 11.9206 20.9498ZM11.9206 23.5989C11.7896 23.5989 11.6616 23.56 11.5527 23.4873C11.4438 23.4145 11.3589 23.3111 11.3088 23.1901C11.2586 23.069 11.2455 22.9359 11.2711 22.8074C11.2966 22.6789 11.3597 22.5609 11.4523 22.4683C11.545 22.3757 11.663 22.3126 11.7914 22.2871C11.9199 22.2615 12.053 22.2746 12.1741 22.3248C12.2951 22.3749 12.3985 22.4598 12.4713 22.5687C12.544 22.6776 12.5829 22.8056 12.5829 22.9366C12.5829 23.1123 12.5131 23.2807 12.3889 23.4049C12.2647 23.5291 12.0963 23.5989 11.9206 23.5989ZM30.464 20.9498C30.071 20.9498 29.6869 21.0664 29.3602 21.2847C29.0334 21.503 28.7788 21.8133 28.6284 22.1763C28.478 22.5393 28.4387 22.9388 28.5153 23.3242C28.592 23.7096 28.7812 24.0636 29.0591 24.3415C29.3369 24.6193 29.691 24.8086 30.0764 24.8852C30.4618 24.9619 30.8612 24.9225 31.2243 24.7722C31.5873 24.6218 31.8976 24.3671 32.1159 24.0404C32.3342 23.7137 32.4507 23.3296 32.4507 22.9366C32.4507 22.4097 32.2414 21.9043 31.8688 21.5317C31.4962 21.1591 30.9909 20.9498 30.464 20.9498ZM30.464 23.5989C30.333 23.5989 30.2049 23.56 30.096 23.4873C29.9871 23.4145 29.9022 23.3111 29.8521 23.1901C29.802 23.069 29.7889 22.9359 29.8144 22.8074C29.84 22.6789 29.903 22.5609 29.9957 22.4683C30.0883 22.3757 30.2063 22.3126 30.3348 22.2871C30.4632 22.2615 30.5964 22.2746 30.7174 22.3248C30.8384 22.3749 30.9418 22.4598 31.0146 22.5687C31.0874 22.6776 31.1262 22.8056 31.1262 22.9366C31.1262 23.1123 31.0564 23.2807 30.9322 23.4049C30.808 23.5291 30.6396 23.5989 30.464 23.5989ZM28.7487 33.5328C28.8572 33.4061 28.9139 33.2431 28.9074 33.0765C28.901 32.9098 28.8319 32.7517 28.714 32.6337C28.596 32.5158 28.4379 32.4467 28.2712 32.4403C28.1046 32.4338 27.9416 32.4905 27.8149 32.599L26.8811 33.5328C26.7578 33.6569 26.6885 33.8247 26.6885 33.9997C26.6885 34.1747 26.7578 34.3425 26.8811 34.4666C27.0034 34.5914 27.17 34.6628 27.3447 34.6653C27.4323 34.6649 27.519 34.6472 27.5997 34.6131C27.6804 34.5789 27.7536 34.5292 27.8149 34.4666L28.7487 33.5328ZM24.5036 40.1554H23.1791C23.0034 40.1554 22.835 40.2252 22.7108 40.3494C22.5866 40.4736 22.5168 40.642 22.5168 40.8177C22.5168 40.9933 22.5866 41.1618 22.7108 41.286C22.835 41.4102 23.0034 41.4799 23.1791 41.4799H24.5036C24.6792 41.4799 24.8477 41.4102 24.9719 41.286C25.0961 41.1618 25.1659 40.9933 25.1659 40.8177C25.1659 40.642 25.0961 40.4736 24.9719 40.3494C24.8477 40.2252 24.6792 40.1554 24.5036 40.1554ZM27.8149 40.8177C27.8149 41.6036 28.048 42.3718 28.4846 43.0253C28.9212 43.6787 29.5418 44.188 30.2679 44.4888C30.9939 44.7895 31.7929 44.8682 32.5637 44.7149C33.3345 44.5616 34.0425 44.1831 34.5982 43.6274C35.1539 43.0717 35.5324 42.3637 35.6857 41.5929C35.839 40.8221 35.7603 40.0231 35.4596 39.2971C35.1588 38.571 34.6495 37.9504 33.9961 37.5138C33.3426 37.0772 32.5744 36.8441 31.7885 36.8441C30.7346 36.8441 29.7239 37.2628 28.9787 38.0079C28.2335 38.7531 27.8149 39.7638 27.8149 40.8177ZM34.4375 40.8177C34.4375 41.3416 34.2822 41.8538 33.9911 42.2894C33.7 42.725 33.2863 43.0646 32.8022 43.2651C32.3182 43.4656 31.7855 43.518 31.2717 43.4158C30.7578 43.3136 30.2858 43.0613 29.9153 42.6908C29.5448 42.3204 29.2925 41.8484 29.1903 41.3345C29.0881 40.8206 29.1406 40.288 29.3411 39.8039C29.5416 39.3199 29.8811 38.9062 30.3167 38.6151C30.7524 38.324 31.2645 38.1686 31.7885 38.1686C32.491 38.1686 33.1648 38.4477 33.6616 38.9445C34.1584 39.4413 34.4375 40.1151 34.4375 40.8177Z" fill="#FFA700"/>
<path d="M30.8547 39.8835C30.7313 40.0076 30.6621 40.1754 30.6621 40.3504C30.6621 40.5254 30.7313 40.6932 30.8547 40.8173L31.7885 41.7511C31.8498 41.8137 31.923 41.8634 32.0037 41.8975C32.0844 41.9316 32.1711 41.9494 32.2587 41.9498C32.4334 41.9473 32.6 41.8759 32.7223 41.7511C32.8456 41.627 32.9149 41.4591 32.9149 41.2842C32.9149 41.1092 32.8456 40.9414 32.7223 40.8173L31.7885 39.8835C31.6644 39.7602 31.4965 39.6909 31.3216 39.6909C31.1466 39.6909 30.9788 39.7602 30.8547 39.8835Z" fill="#FFA700"/>
</svg>
