<svg width="50" height="43" viewBox="0 0 50 43" fill="none" xmlns="http://www.w3.org/2000/svg">
<rect x="18.4932" width="31.5068" height="31.5068" rx="15.7534" fill="#F1F5EB"/>
<g clip-path="url(#clip0_168_5129)">
<path d="M30.408 8.56299H15.4902C11.7487 8.56299 8.70508 11.6067 8.70508 15.3481V29.2727C8.70508 30.9139 10.8772 31.4891 11.6939 30.0714L14.3279 25.4909H26.9216C30.663 25.4909 33.7067 22.4472 33.7067 18.7057V11.8617C33.7067 10.043 32.2268 8.56299 30.408 8.56299ZM32.6473 18.7058C32.6473 21.8627 30.0784 24.4316 26.9215 24.4316H14.0217C13.8323 24.4316 13.657 24.5329 13.5623 24.6969L10.7752 29.5433C10.4988 30.0254 9.76445 29.8284 9.76445 29.2728V15.3482C9.76445 12.1913 12.3333 9.62243 15.4902 9.62243H30.408C31.6427 9.62243 32.6473 10.627 32.6473 11.8618V18.7058H32.6473Z" fill="#FFA700"/>
<path d="M28.3452 13.2723H14.0668C13.7741 13.2723 13.5371 13.5093 13.5371 13.802C13.5371 14.0948 13.7741 14.3317 14.0668 14.3317H28.3452C28.638 14.3317 28.8749 14.0948 28.8749 13.802C28.8749 13.5092 28.638 13.2723 28.3452 13.2723ZM28.3452 16.4975H14.0668C13.7741 16.4975 13.5371 16.7344 13.5371 17.0272C13.5371 17.32 13.7741 17.5569 14.0668 17.5569H28.3452C28.638 17.5569 28.8749 17.32 28.8749 17.0272C28.8749 16.7344 28.638 16.4975 28.3452 16.4975ZM24.6539 19.7222H14.0668C13.7741 19.7222 13.5371 19.9592 13.5371 20.2519C13.5371 20.5447 13.7741 20.7816 14.0668 20.7816H24.654C24.9467 20.7816 25.1837 20.5447 25.1837 20.2519C25.1836 19.9592 24.9467 19.7222 24.6539 19.7222ZM31.406 27.8104H21.8642C19.3663 27.8104 17.3339 29.8428 17.3339 32.3407V41.2472C17.3339 42.4904 18.9812 42.9311 19.6017 41.8529L21.2311 39.0192H29.176C31.6744 39.0192 33.7068 36.9869 33.7068 34.4889V30.1107C33.7068 28.8424 32.6749 27.8104 31.406 27.8104ZM32.6474 34.4889C32.6474 36.4029 31.0899 37.9599 29.1759 37.9599H20.9248C20.7355 37.9599 20.5602 38.0613 20.4655 38.2257L18.6829 41.3247C18.6045 41.4648 18.3932 41.4097 18.3932 41.2471V32.3407C18.3932 30.4268 19.9502 28.8698 21.8642 28.8698H31.4058C32.0902 28.8698 32.6473 29.4264 32.6473 30.1107L32.6474 34.4889ZM7.38459 9.51221H0.727195C0.434441 9.51221 0.19751 9.74914 0.19751 10.0419C0.19751 10.3346 0.434441 10.5716 0.727195 10.5716H7.38459C7.67734 10.5716 7.91427 10.3346 7.91427 10.0419C7.91427 9.74914 7.67734 9.51221 7.38459 9.51221ZM7.38459 13.1192H2.54186C2.24911 13.1192 2.01217 13.3561 2.01217 13.6488C2.01217 13.9416 2.24911 14.1785 2.54186 14.1785H7.38459C7.67734 14.1785 7.91427 13.9416 7.91427 13.6488C7.91427 13.3561 7.67734 13.1192 7.38459 13.1192ZM7.38459 16.7262H3.86141C3.56865 16.7262 3.33172 16.9631 3.33172 17.2559C3.33172 17.5486 3.56865 17.7855 3.86141 17.7855H7.38459C7.67734 17.7855 7.91427 17.5486 7.91427 17.2559C7.91427 16.9631 7.67734 16.7262 7.38459 16.7262ZM7.38459 20.3331H5.51979C5.22704 20.3331 4.99011 20.57 4.99011 20.8628C4.99011 21.1556 5.22704 21.3925 5.51979 21.3925H7.38459C7.67734 21.3925 7.91427 21.1556 7.91427 20.8628C7.91427 20.57 7.67734 20.3331 7.38459 20.3331Z" fill="#FFA700"/>
<path d="M22.6866 32.8853H22.3793C22.0865 32.8853 21.8496 33.1222 21.8496 33.4149C21.8496 33.7077 22.0865 33.9446 22.3793 33.9446H22.6866C22.9793 33.9446 23.2162 33.7077 23.2162 33.4149C23.2162 33.1222 22.9793 32.8853 22.6866 32.8853ZM25.6733 32.8853H25.3666C25.0738 32.8853 24.8369 33.1222 24.8369 33.4149C24.8369 33.7077 25.0738 33.9446 25.3666 33.9446H25.6733C25.966 33.9446 26.203 33.7077 26.203 33.4149C26.203 33.1222 25.966 32.8853 25.6733 32.8853ZM28.6606 32.8853H28.3538C28.0611 32.8853 27.8241 33.1222 27.8241 33.4149C27.8241 33.7077 28.0611 33.9446 28.3538 33.9446H28.6606C28.9533 33.9446 29.1902 33.7077 29.1902 33.4149C29.1902 33.1222 28.9534 32.8853 28.6606 32.8853Z" fill="#FFA700"/>
</g>
<defs>
<clipPath id="clip0_168_5129">
<rect width="33.9041" height="33.9041" fill="white" transform="translate(0 8.56152)"/>
</clipPath>
</defs>
</svg>
