<svg width="33" height="34" viewBox="0 0 33 34" fill="none" xmlns="http://www.w3.org/2000/svg">
<g clip-path="url(#clip0_234_1206)">
<path d="M25.4561 32.2925H25.813V32.3629H25.6749V32.7835H25.5958V32.3629H25.4561V32.2925Z" fill="#1E202D"/>
<path d="M25.9489 32.2925H26.087L26.1964 32.678L26.3041 32.2925H26.4422V32.7835H26.3597V32.3796L26.2435 32.7634H26.161L26.0449 32.3796H26.023V32.7835H25.9438L25.9489 32.2925Z" fill="#1E202D"/>
<path d="M18.048 9.53931C17.952 10.265 17.5631 11.7968 17.7534 12.7237C17.9992 13.917 18.9184 13.8533 19.2585 13.265C19.4842 12.8058 19.5356 12.2808 19.4033 11.7868C19.2003 10.9143 18.7261 10.1278 18.048 9.53931ZM18.8679 12.9499C18.7534 13.2063 18.4083 13.2063 18.282 12.6365C18.1709 12.1337 18.3308 11.16 18.3813 10.7326C18.6174 11.0912 18.7883 11.4883 18.8864 11.9058C18.9858 12.2478 18.9793 12.6116 18.8679 12.9499Z" fill="#1E202D"/>
<path d="M17.7503 15.1775C17.2379 15.2121 16.7553 15.4299 16.3916 15.7909C15.736 16.4011 15.2891 17.2006 15.1138 18.0769C15.7872 17.797 17.321 17.3646 18.0314 16.7361C18.9523 15.93 18.4304 15.1775 17.7503 15.1775ZM17.693 16.3322C17.3125 16.6792 16.3832 17.0278 15.9859 17.1987C16.1803 16.8167 16.4401 16.4713 16.7536 16.178C17.0026 15.9227 17.3228 15.7475 17.6728 15.6753C17.9523 15.635 18.124 15.9317 17.693 16.3255V16.3322Z" fill="#1E202D"/>
<path d="M32.9259 1.22653C32.8832 1.15876 32.8256 1.10146 32.7576 1.05893C32.7823 0.946333 32.7694 0.828781 32.7209 0.724115C32.6725 0.619449 32.591 0.533383 32.4889 0.478978C32.3869 0.424573 32.2698 0.404798 32.1554 0.422656C32.041 0.440513 31.9356 0.495028 31.8552 0.577926L31.5622 0.879602L31.0049 1.09916C30.8198 1.03581 30.62 1.02881 30.4308 1.07904C30.3535 1.1025 30.2708 1.1025 30.1935 1.07904C29.9349 1.02016 29.6648 1.03704 29.4156 1.12765C29.2482 1.12428 29.0817 1.15389 28.9257 1.2148C28.6932 1.30614 28.4949 1.46721 28.3583 1.67569L28.3078 1.73938C27.5418 1.93379 27.2101 2.35614 27.0654 2.68128C27.022 2.78036 26.9892 2.88373 26.9677 2.98966C26.8272 2.88517 26.6766 2.79479 26.5182 2.71983C25.6293 2.31424 24.4844 2.48351 23.6696 3.13882C22.8008 3.8377 22.4557 4.91536 22.72 6.09357C22.8403 6.60175 23.0385 7.08846 23.3076 7.53659C23.9103 8.57737 24.8228 9.5377 25.7067 10.4662C26.4845 11.2857 27.2219 12.0601 27.6411 12.7857C27.6681 12.831 27.6933 12.8763 27.7152 12.9198C28.2624 13.9539 28.1614 14.7148 27.4155 15.1807C27.1763 15.3285 26.9073 15.4218 26.6276 15.4539C26.8919 14.688 27.0064 13.6103 26.4273 12.6148C26.3125 12.4168 26.1771 12.2314 26.0232 12.0617C24.9322 10.8718 23.7739 11.1366 23.3143 11.4433C23.215 11.5094 23.1411 11.6069 23.1044 11.7201C23.0677 11.8332 23.0705 11.9554 23.1123 12.0668C23.1226 12.0945 23.135 12.1213 23.1493 12.1472C23.201 12.2357 23.2773 12.3075 23.369 12.3539C23.4607 12.4003 23.5639 12.4193 23.6662 12.4087C24.1511 12.35 24.6864 12.6701 24.9962 13.2064C25.1502 13.466 25.2303 13.7624 25.2279 14.0639C25.2255 14.3653 25.1408 14.6604 24.9828 14.9176C24.7182 14.7008 24.4706 14.4644 24.242 14.2103L24.1494 14.1114L24.0938 14.0528C23.1897 13.064 22.3025 12.5059 21.4489 12.3902C21.4307 11.6895 21.2381 11.0042 20.8883 10.3958C20.4318 9.58227 19.7907 8.88612 19.0161 8.36284C18.8992 8.2804 18.7772 8.20539 18.6508 8.13826C18.3545 5.90921 16.8746 4.75279 15.5462 4.41256C14.7857 4.20963 13.98 4.25181 13.245 4.53305C12.51 4.81428 11.8834 5.32011 11.4551 5.97793C11.3777 6.09357 11.3019 6.21591 11.2295 6.34161C10.5561 7.50139 10.1706 8.85558 9.79679 10.1578C9.4786 11.269 9.18734 12.3181 8.73108 13.1662L8.65027 13.3103C8.35228 13.8232 8.08964 14.1064 7.80848 14.1969C7.72167 14.2251 7.62929 14.2319 7.53926 14.2168C7.44923 14.2016 7.36425 14.1649 7.29162 14.1098C7.01046 13.9187 7.0778 13.5282 7.32697 12.7774C7.39961 12.5759 7.45867 12.3699 7.50375 12.1606C7.55073 11.9364 7.55014 11.7049 7.50201 11.4809C7.45388 11.257 7.35928 11.0455 7.22427 10.86C7.09256 10.6956 6.92776 10.5605 6.74046 10.4632C6.55316 10.3659 6.3475 10.3087 6.13668 10.2952C5.70904 10.2584 5.09117 10.4008 4.57767 11.2857C4.5339 11.3628 4.49686 11.4316 4.46824 11.4885C4.40375 11.2844 4.28916 11.0995 4.13483 10.9506C3.9805 10.8016 3.79131 10.6933 3.58436 10.6355C3.37109 10.4787 3.11795 10.3847 2.85368 10.364C2.77098 10.3593 2.69092 10.3333 2.62134 10.2885C2.44194 10.1788 2.23163 10.13 2.02199 10.1494L1.57415 9.79748L1.37549 9.42541C1.33161 9.34111 1.26577 9.27011 1.18486 9.21984C1.10396 9.16956 1.01096 9.14186 0.915615 9.13963C0.820267 9.1374 0.72607 9.16073 0.642886 9.20717C0.559701 9.25362 0.490588 9.32147 0.442782 9.40362C0.402469 9.47463 0.378329 9.55359 0.372071 9.63491C0.245193 9.67475 0.137761 9.76019 0.0707089 9.87457C0.036091 9.93635 0.0132585 10.004 0.00336536 10.074C-0.0122781 10.2027 0.0200413 10.3327 0.0942005 10.4392C0.16836 10.5458 0.279207 10.6216 0.405743 10.6522L0.823273 10.7545L1.29468 11.1232C1.33389 11.3131 1.42744 11.4877 1.56405 11.626C1.62304 11.6793 1.66516 11.7486 1.68527 11.8254C1.76283 12.0805 1.91244 12.308 2.11627 12.4807C2.19739 12.6258 2.30603 12.7539 2.43615 12.8578C2.63336 13.014 2.87473 13.1049 3.12642 13.1176L3.20723 13.1293C3.75945 13.6908 4.29146 13.7662 4.6467 13.7276C4.7545 13.716 4.86066 13.6924 4.96321 13.6573C4.94375 13.8309 4.94093 14.006 4.9548 14.1802C5.04571 15.1489 5.7646 16.0522 6.74445 16.4276C7.78491 16.8265 8.89608 16.5952 9.78838 15.769C10.1704 15.4112 10.4947 14.9968 10.7497 14.5405C11.3524 13.5014 11.7329 12.2327 12.0966 11.0075C12.4198 9.92653 12.7229 8.90418 13.1455 8.18016L13.2246 8.04943C13.8526 7.06061 14.5714 6.76731 15.3425 7.17793C15.5916 7.30829 15.8075 7.49342 15.9739 7.71927C15.1759 7.87513 14.1842 8.30586 13.6051 9.31145C13.4892 9.51195 13.3955 9.72436 13.3256 9.94497C12.8357 11.4818 13.6455 12.3483 14.1421 12.5913C14.2496 12.6442 14.3718 12.6594 14.489 12.6345C14.6062 12.6096 14.7115 12.546 14.7879 12.4541C14.8643 12.3622 14.9072 12.2472 14.9098 12.128C14.9124 12.0087 14.8744 11.892 14.8021 11.7969C14.5075 11.4098 14.5193 10.7913 14.8307 10.2517C14.9805 9.99043 15.1986 9.77453 15.4619 9.62696C15.7252 9.47938 16.0237 9.40567 16.3257 9.41368C16.2719 9.74809 16.1931 10.0781 16.09 10.4008C16.0749 10.4461 16.0614 10.4897 16.0496 10.5299C16.0379 10.5701 16.0362 10.5751 16.0261 10.607C15.6186 11.8824 15.5766 12.9249 15.9015 13.7193C15.3017 14.0859 14.8021 14.5942 14.4469 15.1992C13.9684 16.0002 13.6837 16.901 13.6152 17.8304C13.607 17.9717 13.607 18.1132 13.6152 18.2545C11.8205 19.6271 11.5528 21.4807 11.9316 22.7964C12.1349 23.5536 12.574 24.2273 13.186 24.7205C13.7979 25.2137 14.5511 25.5012 15.3375 25.5416C15.4772 25.5416 15.622 25.5533 15.7668 25.5533C17.1137 25.5533 18.4791 25.2182 19.8074 24.883C20.9337 24.6014 21.9961 24.3366 22.954 24.3014H23.1224C23.7184 24.3014 24.0972 24.3869 24.3144 24.5813C24.3824 24.642 24.4346 24.7183 24.4666 24.8035C24.4985 24.8887 24.5093 24.9804 24.4979 25.0707C24.4709 25.4059 24.0972 25.545 23.3194 25.7059C23.1082 25.7442 22.9 25.7974 22.6964 25.8651C22.4779 25.9363 22.2767 26.0522 22.1059 26.2055C21.9352 26.3588 21.7985 26.546 21.7048 26.755C21.6269 26.9506 21.5912 27.1604 21.6002 27.3706C21.6092 27.5809 21.6626 27.7868 21.757 27.9751C21.9388 28.3623 22.3715 28.8232 23.3985 28.8232C23.4877 28.8232 23.5669 28.8232 23.6292 28.8232C23.4507 29.0157 23.3335 29.2566 23.2924 29.5154C23.2684 29.6832 23.2782 29.8541 23.3211 30.0182C23.2901 30.2804 23.3345 30.5459 23.449 30.7841C23.4896 30.8573 23.5088 30.9403 23.5046 31.0237C23.5026 31.231 23.5669 31.4335 23.6881 31.6019L23.6056 32.1651L23.3749 32.5254C23.3236 32.6054 23.2949 32.6977 23.2917 32.7925C23.2885 32.8874 23.3109 32.9813 23.3567 33.0646C23.4025 33.1479 23.4699 33.2173 23.5519 33.2658C23.6339 33.3142 23.7274 33.3398 23.8228 33.3399C23.9046 33.34 23.9853 33.321 24.0585 33.2846C24.1565 33.3751 24.2851 33.4253 24.4188 33.4254C24.4894 33.4254 24.5592 33.4112 24.6242 33.3835C24.7447 33.3332 24.8423 33.2404 24.8985 33.1229C24.9547 33.0055 24.9655 32.8715 24.9289 32.7466L24.8077 32.336L24.8935 31.7444C25.0409 31.6165 25.147 31.4479 25.1983 31.2601C25.2161 31.1816 25.2565 31.11 25.3144 31.0539C25.4945 30.8599 25.6149 30.6185 25.6612 30.3584C25.7471 30.2154 25.8043 30.0571 25.8296 29.8925C25.8657 29.6464 25.8245 29.3953 25.7117 29.1735C25.7016 29.15 25.6899 29.1215 25.6814 29.0964C25.8936 28.3405 25.6932 27.8427 25.4828 27.5561C25.4187 27.4686 25.3447 27.3888 25.2622 27.3182C25.4234 27.2489 25.5773 27.1641 25.7219 27.0651C26.5199 26.5019 26.9458 25.4293 26.7825 24.3986C26.6141 23.3008 25.8448 22.4645 24.6864 22.1025C24.1842 21.9524 23.6618 21.8801 23.1375 21.888C21.9321 21.888 20.6391 22.1947 19.3899 22.4913C18.2871 22.7528 17.245 22.9941 16.4049 22.9941H16.2517C15.0732 22.9472 14.4671 22.4796 14.4351 21.6047C14.4247 21.3246 14.4776 21.0456 14.59 20.7885C15.1253 21.3986 16.0008 22.0355 17.1591 22.0355C17.3918 22.0352 17.6238 22.0099 17.8511 21.9601C19.432 21.6131 19.7805 20.4835 19.7451 19.9338C19.7362 19.8154 19.6877 19.7034 19.6072 19.6157C19.5266 19.5281 19.4189 19.4699 19.3012 19.4506C19.1835 19.4313 19.0627 19.4519 18.9582 19.5091C18.8536 19.5663 18.7715 19.6569 18.7249 19.7662C18.5329 20.2137 17.9874 20.5137 17.3645 20.5137C17.0619 20.5161 16.7644 20.4368 16.5035 20.2842C16.2426 20.1316 16.0282 19.9115 15.883 19.6472C16.2041 19.5271 16.5339 19.4313 16.8695 19.3606L17.0009 19.3304L17.08 19.3137C18.3932 19.0271 19.3209 18.5411 19.8495 17.864C20.4699 18.1987 21.1641 18.3749 21.8698 18.3768C22.806 18.3902 23.7324 18.1859 24.5753 17.7802C24.7036 17.7183 24.8284 17.6495 24.9491 17.574C27.0401 18.4371 28.786 17.7416 29.7456 16.7628C30.3025 16.204 30.6662 15.4832 30.7839 14.7049C30.9017 13.9265 30.7674 13.1311 30.4005 12.4338C30.3382 12.3098 30.2692 12.1824 30.1968 12.0584C29.5234 10.8986 28.5435 9.88966 27.594 8.91424C26.7859 8.07625 26.0232 7.30195 25.5148 6.49413C25.4845 6.4472 25.4558 6.3986 25.4289 6.35334C25.1309 5.83882 25.0164 5.4701 25.077 5.18016C25.0962 5.09098 25.1369 5.00778 25.1956 4.93772C25.2542 4.86765 25.3291 4.81282 25.4138 4.77793C25.7202 4.63044 26.0266 4.88519 26.5552 5.47513C26.6943 5.63674 26.8439 5.78903 27.0031 5.931C27.1746 6.08413 27.3766 6.19978 27.5958 6.2705C27.815 6.34123 28.0467 6.36545 28.2759 6.34161C28.4848 6.31029 28.6849 6.23581 28.8632 6.12295C29.0415 6.0101 29.1941 5.86137 29.3113 5.68631C29.5554 5.33603 29.7406 4.73267 29.2271 3.84273C29.1833 3.76564 29.1412 3.70027 29.1075 3.64664C29.3631 3.701 29.629 3.67884 29.8719 3.58295C30.0283 3.52021 30.1708 3.42737 30.2911 3.30977C30.5343 3.20553 30.7427 3.03465 30.8921 2.81703C30.9366 2.74597 30.9994 2.68809 31.074 2.64943C31.2554 2.54802 31.3998 2.39193 31.4865 2.20362L32.0151 1.99245L32.4444 2.01256C32.5762 2.01851 32.7055 1.97551 32.8073 1.89189C32.909 1.80827 32.9759 1.69 32.9949 1.56005C33.0101 1.44432 32.9858 1.32687 32.9259 1.22653ZM31.9158 1.46787L31.0117 1.82821C31.0205 1.90481 31.0045 1.9822 30.966 2.04913C30.9276 2.11605 30.8687 2.169 30.7979 2.20027C30.3635 2.45334 30.5251 2.64441 29.9931 2.87066C29.8837 2.91591 29.9763 2.96117 29.6412 3.11536C29.4072 3.22262 29.057 3.08184 28.8786 3.11536C28.7001 3.14888 28.286 3.3701 28.5974 3.85781C28.7372 4.07737 29.2709 4.80977 28.8651 5.38798C28.5132 5.89078 27.8987 5.99636 27.3364 5.52876C26.8313 5.10642 26.1175 3.85279 25.1747 4.30362C24.1965 4.7729 24.4827 5.85893 25.0585 6.77402C26.2758 8.70474 28.791 10.4327 29.9207 12.6701C31.3063 15.4137 28.3937 18.6232 24.8582 16.9489C24.6871 17.0788 24.5032 17.1911 24.3093 17.2841C22.7941 18.0148 20.8226 18.0684 19.6542 17.0897C19.1087 18.3818 17.181 18.717 16.8493 18.7958C16.2631 18.9023 15.6958 19.0943 15.1658 19.3656C15.8392 21.5813 18.5733 21.3651 19.1761 19.9522C19.1761 19.9522 19.2518 21.0885 17.6996 21.4271C16.0766 21.7857 14.9115 20.5405 14.5597 19.8366C14.3352 20.0728 14.16 20.351 14.0444 20.6551C13.9288 20.9592 13.8751 21.2831 13.8862 21.6081C13.9216 22.5567 14.5193 23.4416 16.2129 23.5087C18.5094 23.5975 22.0786 21.8327 24.5114 22.5885C26.7 23.2723 26.6613 25.7226 25.3969 26.6109C24.9794 26.9059 24.2066 27.1137 23.7032 27.1405C23.449 27.1539 23.4339 27.2712 23.4557 27.3383C23.4776 27.4053 23.6241 27.4321 23.8413 27.4103C24.6477 27.3332 25.5131 27.8008 25.1292 29.0092C25.0686 29.1986 25.3447 29.512 25.2976 29.7634C25.2235 30.1237 25.1595 30.045 25.141 30.1606C25.0434 30.7288 24.8043 30.6114 24.673 31.0941C24.6611 31.1651 24.6279 31.2308 24.5777 31.2826C24.5275 31.3344 24.4627 31.3698 24.3918 31.3841L24.2521 32.3528L24.4053 32.874L24.1443 32.4399L23.7992 32.7952L24.0921 32.3377L24.2319 31.3774C24.1603 31.3472 24.1003 31.2949 24.0609 31.2282C24.0215 31.1615 24.0047 31.0839 24.013 31.007C24.013 30.5042 23.7638 30.5494 23.8345 29.9779C23.8497 29.8623 23.7655 29.9193 23.7992 29.5539C23.8211 29.2992 24.1191 29.0679 24.1763 28.8936C24.2336 28.7193 24.2504 28.2567 23.6712 28.2802C23.4103 28.2902 22.5062 28.3841 22.2065 27.7472C21.9439 27.1908 22.1611 26.6092 22.848 26.3578C23.4675 26.1316 24.9154 26.1466 24.9945 25.1075C25.0754 24.0282 23.9844 23.7332 22.9035 23.7668C20.6155 23.8506 17.8528 25.1561 15.3425 25.0103C12.2649 24.8327 10.9265 20.7181 14.1522 18.5059C14.1252 18.2941 14.1201 18.0801 14.1371 17.8673C14.26 16.1913 15.1977 14.4684 16.6338 13.9506C15.7819 12.8344 16.4537 11.0042 16.5513 10.6807C16.7474 10.123 16.8608 9.53974 16.8881 8.94943C14.6236 8.4215 13.4451 10.8885 14.3627 12.1137C14.3627 12.1137 13.3374 11.6109 13.8189 10.1025C14.324 8.51033 15.9857 8.13156 16.7803 8.17848C16.6885 7.86722 16.5356 7.57717 16.3304 7.32516C16.1253 7.07314 15.8719 6.86416 15.585 6.71033C14.7432 6.26619 13.6741 6.33994 12.7683 7.76619C11.5444 9.70027 11.3036 13.669 9.4264 15.3785C7.74282 16.9237 5.62486 15.6668 5.48008 14.1299C5.43294 13.6271 5.64843 12.8528 5.8673 12.407C5.98347 12.179 5.88919 12.1087 5.82016 12.0936C5.72588 12.0718 5.6518 12.1891 5.56426 12.3902C5.22754 13.1243 4.38574 13.6371 3.5288 12.7003C3.39411 12.5545 2.98332 12.6332 2.79139 12.464C2.51359 12.2193 2.61461 12.2042 2.5237 12.1288C2.07923 11.76 2.29641 11.626 1.94623 11.2589C1.89034 11.2133 1.84977 11.1518 1.82991 11.0826C1.81006 11.0135 1.81187 10.9399 1.83511 10.8718L1.06066 10.2668L0.532012 10.1377H1.03709L0.904085 9.66843L1.15494 10.1494L1.92097 10.7494C1.98353 10.7039 2.059 10.6794 2.13647 10.6794C2.21394 10.6794 2.28941 10.7039 2.35197 10.7494C2.78802 10.9992 2.87388 10.7628 3.33687 11.1098C3.42947 11.1802 3.42273 11.0779 3.72409 11.2908C3.93454 11.4383 3.98673 11.8103 4.10795 11.9461C4.22917 12.0818 4.6265 12.3299 4.89587 11.817C5.01709 11.5874 5.38748 10.7612 6.09122 10.8215C6.70741 10.8735 7.10137 11.3511 6.97847 12.0684C6.86567 12.717 6.13668 13.9573 6.9953 14.5438C7.89097 15.1539 8.69236 14.3645 9.2008 13.4092C10.2716 11.398 10.5174 8.36284 11.8945 6.26955C13.5882 3.7053 17.8376 4.61033 18.1474 8.49524C18.3479 8.5801 18.5391 8.68511 18.7181 8.80865C20.1138 9.75223 21.1425 11.4215 20.8748 12.9181C22.2739 12.7506 23.5298 14.2371 23.7622 14.4835C24.1472 14.933 24.5965 15.3238 25.0956 15.6433C26.6882 13.9556 25.1309 11.7047 23.6022 11.8908C23.6022 11.8908 24.5518 11.2589 25.6225 12.4271C26.7539 13.6623 26.2539 15.2762 25.8161 15.9466C26.1363 16.0229 26.4686 16.0345 26.7934 15.9807C27.1181 15.9268 27.4287 15.8087 27.7068 15.6332C28.5132 15.1304 28.9846 14.1718 28.195 12.6785C27.1159 10.6522 23.7941 8.46005 23.2386 5.98295C22.7335 3.75558 24.8885 2.56228 26.2976 3.20753C26.7623 3.41871 27.328 3.98184 27.6041 4.40251C27.7438 4.61536 27.8516 4.5701 27.9004 4.51815C27.9492 4.46619 27.9004 4.32876 27.7691 4.14776C27.2994 3.49245 27.2741 2.512 28.5183 2.23882C28.7119 2.19692 28.855 1.80139 29.0924 1.72262C29.4426 1.60362 29.4055 1.69916 29.5167 1.65726C30.0638 1.45781 30.0739 1.71759 30.5689 1.60195C30.6367 1.57697 30.7104 1.57305 30.7805 1.5907C30.8505 1.60836 30.9135 1.64676 30.9612 1.70083L31.8737 1.33547L32.2525 0.931557L31.9932 1.36731L32.4764 1.48798L31.9158 1.46787Z" fill="#1E202D"/>
<path d="M20.1628 15.5126C20.449 15.9375 20.8803 16.2447 21.3767 16.3774C22.2347 16.6382 23.1534 16.6242 24.0031 16.3371C23.4205 15.8913 22.2807 14.7902 21.3817 14.4936C20.2251 14.1064 19.821 14.931 20.1628 15.5126ZM21.5315 15.8712C21.1871 15.7883 20.8753 15.6051 20.6359 15.345C20.4675 15.1187 20.6359 14.8204 21.2016 14.9964C21.6915 15.1506 22.4609 15.7774 22.8077 16.0338C22.3763 16.0566 21.9443 16.0033 21.5315 15.8762V15.8712Z" fill="#1E202D"/>
</g>
<defs>
<clipPath id="clip0_234_1206">
<rect width="33" height="33" fill="white" transform="translate(0 0.406982)"/>
</clipPath>
</defs>
</svg>
